<svg xmlns="http://www.w3.org/2000/svg" width="15" height="15" viewBox="0 0 15 15"><defs><style>.a{fill:#1d4a6b;}</style></defs><path class="a" d="M1311.449,126.346a.508.508,0,0,0,.5-.511v-1.272a.511.511,0,0,0-.309-.471l-7-2.983a.5.5,0,0,0-.391,0l-7,2.983a.511.511,0,0,0-.308.471v1.272a.508.508,0,0,0,.5.511h.547v7.6h-.547a.508.508,0,0,0-.5.511v1.1a.508.508,0,0,0,.5.511h13.991a.508.508,0,0,0,.5-.511v-1.1a.508.508,0,0,0-.5-.511h-.5v-7.6Zm-9.889,6.588a.264.264,0,0,1-.262.266h-1.052a.265.265,0,0,1-.263-.266v-5.577a.265.265,0,0,1,.263-.266h1.052a.265.265,0,0,1,.262.266Zm3.683,0a.265.265,0,0,1-.263.266h-1.052a.265.265,0,0,1-.263-.266v-5.577a.265.265,0,0,1,.263-.266h1.052a.265.265,0,0,1,.263.266Zm-.789-7.885c-.922,0-1.669-.336-1.669-.75s.748-.75,1.669-.75,1.669.335,1.669.75S1305.376,125.049,1304.454,125.049Zm4.471,7.885a.265.265,0,0,1-.263.266h-1.052a.265.265,0,0,1-.263-.266v-5.577a.265.265,0,0,1,.263-.266h1.052a.265.265,0,0,1,.263.266Z" transform="translate(-1296.954 -121.068)"/></svg>