<svg xmlns="http://www.w3.org/2000/svg" width="24" height="24" viewBox="0 0 24 24"><defs><style>.a{fill:#1d4a6b;fill-rule:evenodd;}</style></defs><path class="a" d="M1230.673,391.009v11.1a1.2,1.2,0,0,0,1.2,1.2h15.6a1.2,1.2,0,0,0,1.2-1.2v-11.1a1.2,1.2,0,0,0-1.2-1.2h-15.6A1.2,1.2,0,0,0,1230.673,391.009Zm16.5-5.7h3a1.417,1.417,0,0,1,1.5,1.329,1.6,1.6,0,0,1,0,.171v18a1.417,1.417,0,0,1-1.329,1.5,1.631,1.631,0,0,1-.171,0h-20.995a1.417,1.417,0,0,1-1.5-1.329,1.249,1.249,0,0,1,0-.171v-18a1.418,1.418,0,0,1,1.329-1.5,1.629,1.629,0,0,1,.171,0h3v-1.5a1.417,1.417,0,0,1,1.329-1.5,1.631,1.631,0,0,1,.171,0,1.416,1.416,0,0,1,1.5,1.329,1.211,1.211,0,0,1,0,.171v1.5h9v-1.5a1.5,1.5,0,0,1,3,0Zm-2.7,15h-.6a1.2,1.2,0,0,1-1.2-1.2v-.6a1.2,1.2,0,0,1,1.2-1.2h.6a1.2,1.2,0,0,1,1.2,1.2v.6A1.2,1.2,0,0,1,1244.47,400.307Zm-4.5,0h-.6a1.2,1.2,0,0,1-1.2-1.2v-.6a1.2,1.2,0,0,1,1.2-1.2h.6a1.2,1.2,0,0,1,1.2,1.2v.6A1.2,1.2,0,0,1,1239.971,400.307Zm4.5-4.5h-.6a1.2,1.2,0,0,1-1.2-1.2v-.6a1.2,1.2,0,0,1,1.2-1.2h.6a1.2,1.2,0,0,1,1.2,1.2v.6A1.2,1.2,0,0,1,1244.47,395.808Zm-4.5,0h-.6a1.2,1.2,0,0,1-1.2-1.2v-.6a1.2,1.2,0,0,1,1.2-1.2h.6a1.2,1.2,0,0,1,1.2,1.2v.6A1.2,1.2,0,0,1,1239.971,395.808Zm-4.5,4.5h-.6a1.2,1.2,0,0,1-1.2-1.2v-.6a1.2,1.2,0,0,1,1.2-1.2h.6a1.2,1.2,0,0,1,1.2,1.2v.6A1.2,1.2,0,0,1,1235.472,400.307Z" transform="translate(-1227.671 -382.308)"/></svg>